<svg width="652" height="89" viewBox="0 0 652 89" fill="none" xmlns="http://www.w3.org/2000/svg">
<path d="M21.6054 20.7457V41.4915H41.7704C48.3961 41.4915 52.285 37.6549 52.285 31.1186C52.285 24.5823 48.3961 20.7457 41.7704 20.7457H21.6054ZM54.3015 55.5588C58.3345 60.9583 62.3675 66.3579 66.5446 71.6154C70.5776 76.8729 74.6106 82.2724 78.6436 87.672H52.285C47.0997 80.8515 42.0585 74.031 37.0172 67.2105C31.976 60.5321 26.7907 53.7115 21.6054 46.891V87.672H0V0.710473H41.7704C58.1905 0.710473 72.162 13.0727 72.162 29.4135C72.162 40.9231 64.9602 51.0118 54.3015 55.5588ZM96.3276 0.710473H161.864V20.4615H117.933V34.3868H153.222V54.1378H117.933V67.9209H161.864V87.672H96.3276V0.710473ZM237.306 70.0524H204.898L198.561 87.672H175.083L210.372 0.710473H231.977L267.266 87.672H243.644L237.306 70.0524ZM211.956 50.3013H230.249L221.174 25.0086L211.956 50.3013ZM350.054 63.3739V85.2564C341.124 87.672 332.194 88.6667 322.975 88.6667C295.897 88.6667 277.748 70.3365 277.748 44.3333C277.748 17.6197 296.617 0 322.831 0C331.905 0 341.412 0.710474 350.054 3.41026V25.2927C342.996 21.8825 331.905 20.6036 324.128 20.6036C306.555 20.6036 299.353 27.7083 299.353 44.1912C299.353 61.6688 307.851 68.063 324.272 68.063C331.617 68.063 343.572 66.9263 350.054 63.3739ZM424.488 0.710473H446.094V87.672H424.488V54.1378H392.8V87.672H371.195V0.710473H392.8V34.3868H424.488V0.710473ZM527.297 0.710473H548.903V87.672H527.297L492.729 36.8024V87.672H471.123V0.710473H492.729L527.297 51.5801V0.710473ZM652 34.3868V82.6987C641.773 86.5353 628.954 88.6667 618.008 88.6667C589.921 88.6667 571.052 72.0417 571.052 44.6175C571.052 14.6357 593.666 0 621.32 0C623.193 0 625.209 -1.32335e-07 627.514 0.142094C629.674 0.284188 631.979 0.568379 634.428 0.710473C638.893 1.27885 643.358 1.84723 647.679 3.12607V24.8665C646.095 24.156 644.366 23.5876 642.35 23.0192C640.189 22.5929 638.029 22.1667 635.724 21.7404C631.115 20.8878 626.218 20.6036 621.464 20.6036C603.172 20.6036 592.657 26.1453 592.657 44.6175C592.657 62.6635 602.308 68.063 618.728 68.063C620.456 68.063 622.329 67.9209 624.345 67.7789C626.218 67.6368 628.234 67.4947 630.395 67.3526V54.1378H611.67V34.3868H652Z" fill="#1E1E24"/>
</svg>
